<mxfile host="Electron" modified="2023-12-12T15:13:30.958Z" agent="Mozilla/5.0 (Windows NT 10.0; Win64; x64) AppleWebKit/537.36 (KHTML, like Gecko) draw.io/22.1.2 Chrome/114.0.5735.289 Electron/25.9.4 Safari/537.36" etag="GXaPD-eTTqRFQ4jrQUSo" version="22.1.2" type="device">
  <diagram name="Page-1" id="dC8sB8LTiM5v0IOeK6bp">
    <mxGraphModel dx="2710" dy="884" grid="0" gridSize="10" guides="1" tooltips="1" connect="1" arrows="1" fold="1" page="0" pageScale="1" pageWidth="850" pageHeight="1100" math="0" shadow="0">
      <root>
        <mxCell id="0" />
        <mxCell id="1" parent="0" />
        <mxCell id="yN8mX1wbEfo4K8Nz7WSZ-1" value="&lt;i&gt;&amp;lt;&amp;lt; abstract &amp;gt;&amp;gt;&lt;br&gt;CompressionABC&lt;/i&gt;" style="swimlane;fontStyle=1;align=center;verticalAlign=top;childLayout=stackLayout;horizontal=1;startSize=40;horizontalStack=0;resizeParent=1;resizeParentMax=0;resizeLast=0;collapsible=1;marginBottom=0;whiteSpace=wrap;html=1;strokeColor=#464F55;fontColor=#FFFFFF;fillColor=#2C6879;rounded=1;labelBackgroundColor=none;" parent="1" vertex="1">
          <mxGeometry x="-1382" y="142" width="220" height="106" as="geometry">
            <mxRectangle x="299" y="276" width="120" height="40" as="alternateBounds" />
          </mxGeometry>
        </mxCell>
        <mxCell id="yN8mX1wbEfo4K8Nz7WSZ-2" value="&amp;nbsp;" style="text;strokeColor=none;fillColor=none;align=left;verticalAlign=top;spacingLeft=4;spacingRight=4;overflow=hidden;rotatable=0;points=[[0,0.5],[1,0.5]];portConstraint=eastwest;whiteSpace=wrap;html=1;fontColor=#464F55;rounded=1;labelBackgroundColor=none;" parent="yN8mX1wbEfo4K8Nz7WSZ-1" vertex="1">
          <mxGeometry y="40" width="220" height="20" as="geometry" />
        </mxCell>
        <mxCell id="yN8mX1wbEfo4K8Nz7WSZ-3" value="" style="line;strokeWidth=1;fillColor=none;align=left;verticalAlign=middle;spacingTop=-1;spacingLeft=3;spacingRight=3;rotatable=0;labelPosition=right;points=[];portConstraint=eastwest;strokeColor=#464F55;fontColor=#1A1A1A;rounded=1;labelBackgroundColor=none;" parent="yN8mX1wbEfo4K8Nz7WSZ-1" vertex="1">
          <mxGeometry y="60" width="220" height="8" as="geometry" />
        </mxCell>
        <mxCell id="yN8mX1wbEfo4K8Nz7WSZ-4" value="+ encode&lt;br&gt;+ decode" style="text;strokeColor=none;fillColor=none;align=left;verticalAlign=top;spacingLeft=4;spacingRight=4;overflow=hidden;rotatable=0;points=[[0,0.5],[1,0.5]];portConstraint=eastwest;whiteSpace=wrap;html=1;fontColor=#464F55;rounded=1;labelBackgroundColor=none;" parent="yN8mX1wbEfo4K8Nz7WSZ-1" vertex="1">
          <mxGeometry y="68" width="220" height="38" as="geometry" />
        </mxCell>
        <mxCell id="yN8mX1wbEfo4K8Nz7WSZ-5" value="" style="endArrow=none;dashed=1;html=1;rounded=0;opacity=40;" parent="1" edge="1">
          <mxGeometry width="50" height="50" relative="1" as="geometry">
            <mxPoint x="-1528" y="1016.62" as="sourcePoint" />
            <mxPoint x="-1528" y="-13.379999999999999" as="targetPoint" />
          </mxGeometry>
        </mxCell>
        <mxCell id="yN8mX1wbEfo4K8Nz7WSZ-6" value="" style="endArrow=none;dashed=1;html=1;rounded=0;opacity=40;" parent="1" edge="1">
          <mxGeometry width="50" height="50" relative="1" as="geometry">
            <mxPoint x="-812" y="969.62" as="sourcePoint" />
            <mxPoint x="-812" y="-13.379999999999999" as="targetPoint" />
          </mxGeometry>
        </mxCell>
        <mxCell id="yN8mX1wbEfo4K8Nz7WSZ-11" value="&lt;br&gt;LZW&lt;i style=&quot;border-color: var(--border-color);&quot;&gt;Compression&lt;/i&gt;" style="swimlane;fontStyle=1;align=center;verticalAlign=top;childLayout=stackLayout;horizontal=1;startSize=40;horizontalStack=0;resizeParent=1;resizeParentMax=0;resizeLast=0;collapsible=1;marginBottom=0;whiteSpace=wrap;html=1;strokeColor=#464F55;fontColor=#FFFFFF;fillColor=#2C6879;rounded=1;labelBackgroundColor=none;" parent="1" vertex="1">
          <mxGeometry x="-1382" y="258" width="220" height="100" as="geometry">
            <mxRectangle x="299" y="276" width="120" height="40" as="alternateBounds" />
          </mxGeometry>
        </mxCell>
        <mxCell id="yN8mX1wbEfo4K8Nz7WSZ-30" style="edgeStyle=orthogonalEdgeStyle;rounded=0;orthogonalLoop=1;jettySize=auto;html=1;exitX=0;exitY=0.5;exitDx=0;exitDy=0;endArrow=none;endFill=0;dashed=1;" parent="yN8mX1wbEfo4K8Nz7WSZ-11" source="yN8mX1wbEfo4K8Nz7WSZ-12" edge="1">
          <mxGeometry relative="1" as="geometry">
            <mxPoint x="-21" y="50.333333333333485" as="targetPoint" />
          </mxGeometry>
        </mxCell>
        <mxCell id="YMNnF1_kSBJPY39AivQV-12" style="edgeStyle=orthogonalEdgeStyle;rounded=0;orthogonalLoop=1;jettySize=auto;html=1;exitX=1;exitY=0.577;exitDx=0;exitDy=0;endArrow=none;endFill=0;endSize=10;startSize=10;startArrow=open;startFill=0;exitPerimeter=0;" parent="yN8mX1wbEfo4K8Nz7WSZ-11" source="yN8mX1wbEfo4K8Nz7WSZ-12" edge="1">
          <mxGeometry relative="1" as="geometry">
            <mxPoint x="389" y="52" as="targetPoint" />
          </mxGeometry>
        </mxCell>
        <mxCell id="yN8mX1wbEfo4K8Nz7WSZ-12" value="&amp;nbsp;" style="text;strokeColor=none;fillColor=none;align=left;verticalAlign=top;spacingLeft=4;spacingRight=4;overflow=hidden;rotatable=0;points=[[0,0.5],[1,0.5]];portConstraint=eastwest;whiteSpace=wrap;html=1;fontColor=#464F55;rounded=1;labelBackgroundColor=none;" parent="yN8mX1wbEfo4K8Nz7WSZ-11" vertex="1">
          <mxGeometry y="40" width="220" height="20" as="geometry" />
        </mxCell>
        <mxCell id="yN8mX1wbEfo4K8Nz7WSZ-13" value="" style="line;strokeWidth=1;fillColor=none;align=left;verticalAlign=middle;spacingTop=-1;spacingLeft=3;spacingRight=3;rotatable=0;labelPosition=right;points=[];portConstraint=eastwest;strokeColor=#464F55;fontColor=#1A1A1A;rounded=1;labelBackgroundColor=none;" parent="yN8mX1wbEfo4K8Nz7WSZ-11" vertex="1">
          <mxGeometry y="60" width="220" height="8" as="geometry" />
        </mxCell>
        <mxCell id="yN8mX1wbEfo4K8Nz7WSZ-14" value="&amp;nbsp;" style="text;strokeColor=none;fillColor=none;align=left;verticalAlign=top;spacingLeft=4;spacingRight=4;overflow=hidden;rotatable=0;points=[[0,0.5],[1,0.5]];portConstraint=eastwest;whiteSpace=wrap;html=1;fontColor=#464F55;rounded=1;labelBackgroundColor=none;" parent="yN8mX1wbEfo4K8Nz7WSZ-11" vertex="1">
          <mxGeometry y="68" width="220" height="32" as="geometry" />
        </mxCell>
        <mxCell id="yN8mX1wbEfo4K8Nz7WSZ-29" style="edgeStyle=orthogonalEdgeStyle;rounded=0;orthogonalLoop=1;jettySize=auto;html=1;entryX=0;entryY=0.5;entryDx=0;entryDy=0;exitX=0;exitY=0.5;exitDx=0;exitDy=0;endArrow=block;endFill=0;dashed=1;endSize=10;startSize=10;" parent="1" source="yN8mX1wbEfo4K8Nz7WSZ-16" target="yN8mX1wbEfo4K8Nz7WSZ-2" edge="1">
          <mxGeometry relative="1" as="geometry" />
        </mxCell>
        <mxCell id="yN8mX1wbEfo4K8Nz7WSZ-15" value="&lt;br&gt;Huffman&lt;i style=&quot;border-color: var(--border-color);&quot;&gt;Compression&lt;/i&gt;" style="swimlane;fontStyle=1;align=center;verticalAlign=top;childLayout=stackLayout;horizontal=1;startSize=40;horizontalStack=0;resizeParent=1;resizeParentMax=0;resizeLast=0;collapsible=1;marginBottom=0;whiteSpace=wrap;html=1;strokeColor=#464F55;fontColor=#FFFFFF;fillColor=#2C6879;rounded=1;labelBackgroundColor=none;" parent="1" vertex="1">
          <mxGeometry x="-1385" y="379" width="220" height="121" as="geometry">
            <mxRectangle x="299" y="276" width="120" height="40" as="alternateBounds" />
          </mxGeometry>
        </mxCell>
        <mxCell id="yN8mX1wbEfo4K8Nz7WSZ-16" value="+ inary_tree" style="text;strokeColor=none;fillColor=none;align=left;verticalAlign=top;spacingLeft=4;spacingRight=4;overflow=hidden;rotatable=0;points=[[0,0.5],[1,0.5]];portConstraint=eastwest;whiteSpace=wrap;html=1;fontColor=#464F55;rounded=1;labelBackgroundColor=none;" parent="yN8mX1wbEfo4K8Nz7WSZ-15" vertex="1">
          <mxGeometry y="40" width="220" height="20" as="geometry" />
        </mxCell>
        <mxCell id="yN8mX1wbEfo4K8Nz7WSZ-17" value="" style="line;strokeWidth=1;fillColor=none;align=left;verticalAlign=middle;spacingTop=-1;spacingLeft=3;spacingRight=3;rotatable=0;labelPosition=right;points=[];portConstraint=eastwest;strokeColor=#464F55;fontColor=#1A1A1A;rounded=1;labelBackgroundColor=none;" parent="yN8mX1wbEfo4K8Nz7WSZ-15" vertex="1">
          <mxGeometry y="60" width="220" height="8" as="geometry" />
        </mxCell>
        <mxCell id="yN8mX1wbEfo4K8Nz7WSZ-18" value="+ set_binary_tree&lt;br&gt;+ export_binary_tree&lt;br style=&quot;border-color: var(--border-color);&quot;&gt;+ import_binary_tree" style="text;strokeColor=none;fillColor=none;align=left;verticalAlign=top;spacingLeft=4;spacingRight=4;overflow=hidden;rotatable=0;points=[[0,0.5],[1,0.5]];portConstraint=eastwest;whiteSpace=wrap;html=1;fontColor=#464F55;rounded=1;labelBackgroundColor=none;" parent="yN8mX1wbEfo4K8Nz7WSZ-15" vertex="1">
          <mxGeometry y="68" width="220" height="53" as="geometry" />
        </mxCell>
        <mxCell id="yN8mX1wbEfo4K8Nz7WSZ-33" value="&lt;br&gt;FileHandler" style="swimlane;fontStyle=1;align=center;verticalAlign=top;childLayout=stackLayout;horizontal=1;startSize=40;horizontalStack=0;resizeParent=1;resizeParentMax=0;resizeLast=0;collapsible=1;marginBottom=0;whiteSpace=wrap;html=1;strokeColor=#464F55;fontColor=#FFFFFF;fillColor=#2C6879;rounded=1;labelBackgroundColor=none;" parent="1" vertex="1">
          <mxGeometry x="-1796" y="110" width="220" height="100" as="geometry">
            <mxRectangle x="299" y="276" width="120" height="40" as="alternateBounds" />
          </mxGeometry>
        </mxCell>
        <mxCell id="yN8mX1wbEfo4K8Nz7WSZ-34" value="&amp;nbsp;" style="text;strokeColor=none;fillColor=none;align=left;verticalAlign=top;spacingLeft=4;spacingRight=4;overflow=hidden;rotatable=0;points=[[0,0.5],[1,0.5]];portConstraint=eastwest;whiteSpace=wrap;html=1;fontColor=#464F55;rounded=1;labelBackgroundColor=none;" parent="yN8mX1wbEfo4K8Nz7WSZ-33" vertex="1">
          <mxGeometry y="40" width="220" height="20" as="geometry" />
        </mxCell>
        <mxCell id="yN8mX1wbEfo4K8Nz7WSZ-35" value="" style="line;strokeWidth=1;fillColor=none;align=left;verticalAlign=middle;spacingTop=-1;spacingLeft=3;spacingRight=3;rotatable=0;labelPosition=right;points=[];portConstraint=eastwest;strokeColor=#464F55;fontColor=#1A1A1A;rounded=1;labelBackgroundColor=none;" parent="yN8mX1wbEfo4K8Nz7WSZ-33" vertex="1">
          <mxGeometry y="60" width="220" height="8" as="geometry" />
        </mxCell>
        <mxCell id="yN8mX1wbEfo4K8Nz7WSZ-36" value="+ get_file_size()" style="text;strokeColor=none;fillColor=none;align=left;verticalAlign=top;spacingLeft=4;spacingRight=4;overflow=hidden;rotatable=0;points=[[0,0.5],[1,0.5]];portConstraint=eastwest;whiteSpace=wrap;html=1;fontColor=#464F55;rounded=1;labelBackgroundColor=none;" parent="yN8mX1wbEfo4K8Nz7WSZ-33" vertex="1">
          <mxGeometry y="68" width="220" height="32" as="geometry" />
        </mxCell>
        <mxCell id="yN8mX1wbEfo4K8Nz7WSZ-43" value="&lt;br&gt;PerformanceCalculator" style="swimlane;fontStyle=1;align=center;verticalAlign=top;childLayout=stackLayout;horizontal=1;startSize=40;horizontalStack=0;resizeParent=1;resizeParentMax=0;resizeLast=0;collapsible=1;marginBottom=0;whiteSpace=wrap;html=1;strokeColor=#464F55;fontColor=#FFFFFF;fillColor=#2C6879;rounded=1;labelBackgroundColor=none;" parent="1" vertex="1">
          <mxGeometry x="-1385" y="803" width="220" height="162" as="geometry">
            <mxRectangle x="299" y="276" width="120" height="40" as="alternateBounds" />
          </mxGeometry>
        </mxCell>
        <mxCell id="yN8mX1wbEfo4K8Nz7WSZ-44" value="+ start_time&lt;br&gt;+ end_time&lt;br&gt;+ start_size&lt;br&gt;+ end_size" style="text;strokeColor=none;fillColor=none;align=left;verticalAlign=top;spacingLeft=4;spacingRight=4;overflow=hidden;rotatable=0;points=[[0,0.5],[1,0.5]];portConstraint=eastwest;whiteSpace=wrap;html=1;fontColor=#464F55;rounded=1;labelBackgroundColor=none;" parent="yN8mX1wbEfo4K8Nz7WSZ-43" vertex="1">
          <mxGeometry y="40" width="220" height="69" as="geometry" />
        </mxCell>
        <mxCell id="yN8mX1wbEfo4K8Nz7WSZ-45" value="" style="line;strokeWidth=1;fillColor=none;align=left;verticalAlign=middle;spacingTop=-1;spacingLeft=3;spacingRight=3;rotatable=0;labelPosition=right;points=[];portConstraint=eastwest;strokeColor=#464F55;fontColor=#1A1A1A;rounded=1;labelBackgroundColor=none;" parent="yN8mX1wbEfo4K8Nz7WSZ-43" vertex="1">
          <mxGeometry y="109" width="220" height="8" as="geometry" />
        </mxCell>
        <mxCell id="yN8mX1wbEfo4K8Nz7WSZ-46" value="+ measure_time&lt;br&gt;+ measure_compression" style="text;strokeColor=none;fillColor=none;align=left;verticalAlign=top;spacingLeft=4;spacingRight=4;overflow=hidden;rotatable=0;points=[[0,0.5],[1,0.5]];portConstraint=eastwest;whiteSpace=wrap;html=1;fontColor=#464F55;rounded=1;labelBackgroundColor=none;" parent="yN8mX1wbEfo4K8Nz7WSZ-43" vertex="1">
          <mxGeometry y="117" width="220" height="45" as="geometry" />
        </mxCell>
        <mxCell id="l79x1VMeLkTDuMIe-8M3-2" style="edgeStyle=orthogonalEdgeStyle;rounded=0;orthogonalLoop=1;jettySize=auto;html=1;entryX=0.52;entryY=1;entryDx=0;entryDy=0;entryPerimeter=0;endArrow=none;endFill=0;" parent="1" source="yN8mX1wbEfo4K8Nz7WSZ-63" target="YMNnF1_kSBJPY39AivQV-4" edge="1">
          <mxGeometry relative="1" as="geometry" />
        </mxCell>
        <mxCell id="yN8mX1wbEfo4K8Nz7WSZ-63" value="main.py" style="rounded=0;whiteSpace=wrap;html=1;" parent="1" vertex="1">
          <mxGeometry x="-639" y="484" width="120" height="60" as="geometry" />
        </mxCell>
        <mxCell id="yN8mX1wbEfo4K8Nz7WSZ-74" value="&lt;span style=&quot;font-size: 24px;&quot;&gt;DATA LAYER&lt;/span&gt;" style="text;html=1;strokeColor=none;fillColor=none;align=center;verticalAlign=middle;whiteSpace=wrap;rounded=0;" parent="1" vertex="1">
          <mxGeometry x="-1756" y="-78.75" width="210" height="40" as="geometry" />
        </mxCell>
        <mxCell id="yN8mX1wbEfo4K8Nz7WSZ-75" value="" style="shape=curlyBracket;whiteSpace=wrap;html=1;rounded=1;flipH=1;labelPosition=right;verticalLabelPosition=middle;align=left;verticalAlign=middle;rotation=-90;" parent="1" vertex="1">
          <mxGeometry x="-1664.75" y="-155" width="20" height="252.5" as="geometry" />
        </mxCell>
        <mxCell id="yN8mX1wbEfo4K8Nz7WSZ-76" value="&lt;span style=&quot;font-size: 24px;&quot;&gt;CORE&lt;/span&gt;" style="text;html=1;strokeColor=none;fillColor=none;align=center;verticalAlign=middle;whiteSpace=wrap;rounded=0;" parent="1" vertex="1">
          <mxGeometry x="-1272.23" y="-87" width="210" height="40" as="geometry" />
        </mxCell>
        <mxCell id="yN8mX1wbEfo4K8Nz7WSZ-77" value="" style="shape=curlyBracket;whiteSpace=wrap;html=1;rounded=1;flipH=1;labelPosition=right;verticalLabelPosition=middle;align=left;verticalAlign=middle;rotation=-90;" parent="1" vertex="1">
          <mxGeometry x="-1177.23" y="-384.51" width="20" height="711.55" as="geometry" />
        </mxCell>
        <mxCell id="yN8mX1wbEfo4K8Nz7WSZ-78" value="&lt;span style=&quot;font-size: 24px;&quot;&gt;USER COMMUNICATION&lt;br&gt;(FRONTEND)&lt;br&gt;&lt;/span&gt;" style="text;html=1;strokeColor=none;fillColor=none;align=center;verticalAlign=middle;whiteSpace=wrap;rounded=0;" parent="1" vertex="1">
          <mxGeometry x="-746.34" y="-94" width="314.31" height="40" as="geometry" />
        </mxCell>
        <mxCell id="yN8mX1wbEfo4K8Nz7WSZ-79" value="" style="shape=curlyBracket;whiteSpace=wrap;html=1;rounded=1;flipH=1;labelPosition=right;verticalLabelPosition=middle;align=left;verticalAlign=middle;rotation=-90;" parent="1" vertex="1">
          <mxGeometry x="-599.19" y="-244.7" width="20" height="431.88" as="geometry" />
        </mxCell>
        <mxCell id="yN8mX1wbEfo4K8Nz7WSZ-80" value="&lt;span style=&quot;font-size: 24px;&quot;&gt;BACKEND&lt;/span&gt;" style="text;html=1;strokeColor=none;fillColor=none;align=center;verticalAlign=middle;whiteSpace=wrap;rounded=0;" parent="1" vertex="1">
          <mxGeometry x="-1396" y="-172" width="210" height="40" as="geometry" />
        </mxCell>
        <mxCell id="yN8mX1wbEfo4K8Nz7WSZ-81" value="" style="shape=curlyBracket;whiteSpace=wrap;html=1;rounded=1;flipH=1;labelPosition=right;verticalLabelPosition=middle;align=left;verticalAlign=middle;rotation=-90;" parent="1" vertex="1">
          <mxGeometry x="-1310.38" y="-598.63" width="20" height="978" as="geometry" />
        </mxCell>
        <mxCell id="YMNnF1_kSBJPY39AivQV-1" value="&lt;br&gt;Application" style="swimlane;fontStyle=1;align=center;verticalAlign=top;childLayout=stackLayout;horizontal=1;startSize=40;horizontalStack=0;resizeParent=1;resizeParentMax=0;resizeLast=0;collapsible=1;marginBottom=0;whiteSpace=wrap;html=1;strokeColor=#464F55;fontColor=#FFFFFF;fillColor=#2C6879;rounded=1;labelBackgroundColor=none;" parent="1" vertex="1">
          <mxGeometry x="-724" y="228" width="280" height="221" as="geometry">
            <mxRectangle x="299" y="276" width="120" height="40" as="alternateBounds" />
          </mxGeometry>
        </mxCell>
        <mxCell id="YMNnF1_kSBJPY39AivQV-2" value="+ lzw_algorithm:&amp;nbsp;LZWAlgorithm&lt;br&gt;+ huffman_algorithm: HuffmanAlgorithm&lt;br&gt;+ stream_encoder: StreamEncoder&lt;br&gt;+ performance_calculator: PerformanceCalculator&lt;br&gt;&lt;span style=&quot;background-color: initial;&quot;&gt;&lt;br&gt;&lt;br&gt;&amp;nbsp;&lt;/span&gt;" style="text;strokeColor=none;fillColor=none;align=left;verticalAlign=top;spacingLeft=4;spacingRight=4;overflow=hidden;rotatable=0;points=[[0,0.5],[1,0.5]];portConstraint=eastwest;whiteSpace=wrap;html=1;fontColor=#464F55;rounded=1;labelBackgroundColor=none;" parent="YMNnF1_kSBJPY39AivQV-1" vertex="1">
          <mxGeometry y="40" width="280" height="72" as="geometry" />
        </mxCell>
        <mxCell id="YMNnF1_kSBJPY39AivQV-3" value="" style="line;strokeWidth=1;fillColor=none;align=left;verticalAlign=middle;spacingTop=-1;spacingLeft=3;spacingRight=3;rotatable=0;labelPosition=right;points=[];portConstraint=eastwest;strokeColor=#464F55;fontColor=#1A1A1A;rounded=1;labelBackgroundColor=none;" parent="YMNnF1_kSBJPY39AivQV-1" vertex="1">
          <mxGeometry y="112" width="280" height="8" as="geometry" />
        </mxCell>
        <mxCell id="YMNnF1_kSBJPY39AivQV-4" value="+ compress()&lt;br&gt;+ decompress()&lt;br&gt;+ stream()" style="text;strokeColor=none;fillColor=none;align=left;verticalAlign=top;spacingLeft=4;spacingRight=4;overflow=hidden;rotatable=0;points=[[0,0.5],[1,0.5]];portConstraint=eastwest;whiteSpace=wrap;html=1;fontColor=#464F55;rounded=1;labelBackgroundColor=none;" parent="YMNnF1_kSBJPY39AivQV-1" vertex="1">
          <mxGeometry y="120" width="280" height="101" as="geometry" />
        </mxCell>
        <mxCell id="YMNnF1_kSBJPY39AivQV-5" value="" style="shape=collate;whiteSpace=wrap;html=1;rotation=-90;" parent="1" vertex="1">
          <mxGeometry x="-1307.25" y="-47" width="80" height="157" as="geometry" />
        </mxCell>
        <mxCell id="YMNnF1_kSBJPY39AivQV-6" value="" style="ellipse;whiteSpace=wrap;html=1;aspect=fixed;fillColor=#000000;" parent="1" vertex="1">
          <mxGeometry x="-1275.5" y="23.25" width="16.5" height="16.5" as="geometry" />
        </mxCell>
        <mxCell id="YMNnF1_kSBJPY39AivQV-9" style="edgeStyle=orthogonalEdgeStyle;rounded=0;orthogonalLoop=1;jettySize=auto;html=1;endArrow=diamond;endFill=0;endSize=10;startSize=10;startArrow=open;startFill=0;" parent="1" source="yN8mX1wbEfo4K8Nz7WSZ-44" edge="1">
          <mxGeometry relative="1" as="geometry">
            <Array as="points">
              <mxPoint x="-902" y="853" />
              <mxPoint x="-902" y="408" />
              <mxPoint x="-725" y="408" />
            </Array>
            <mxPoint x="-725" y="409" as="targetPoint" />
          </mxGeometry>
        </mxCell>
        <mxCell id="YMNnF1_kSBJPY39AivQV-15" style="edgeStyle=orthogonalEdgeStyle;rounded=0;orthogonalLoop=1;jettySize=auto;html=1;entryX=0.011;entryY=0.132;entryDx=0;entryDy=0;endArrow=diamond;endFill=0;endSize=10;startSize=10;startArrow=open;startFill=0;entryPerimeter=0;" parent="1" source="yN8mX1wbEfo4K8Nz7WSZ-34" target="YMNnF1_kSBJPY39AivQV-1" edge="1">
          <mxGeometry relative="1" as="geometry">
            <Array as="points">
              <mxPoint x="-1452" y="160" />
              <mxPoint x="-1452" y="95" />
              <mxPoint x="-948" y="95" />
              <mxPoint x="-948" y="257" />
            </Array>
          </mxGeometry>
        </mxCell>
        <mxCell id="YMNnF1_kSBJPY39AivQV-16" value="Multi-Layered&#xa;Architecture" style="text;whiteSpace=wrap;fontSize=30;" parent="1" vertex="1">
          <mxGeometry x="-363" y="-104.12" width="253" height="90.75" as="geometry" />
        </mxCell>
        <mxCell id="YMNnF1_kSBJPY39AivQV-20" value="&lt;i style=&quot;border-color: var(--border-color);&quot;&gt;&amp;lt;&amp;lt; abstract &amp;gt;&amp;gt;&lt;/i&gt;&lt;br&gt;&lt;i&gt;FileHandlerABC&lt;/i&gt;" style="swimlane;fontStyle=1;align=center;verticalAlign=top;childLayout=stackLayout;horizontal=1;startSize=40;horizontalStack=0;resizeParent=1;resizeParentMax=0;resizeLast=0;collapsible=1;marginBottom=0;whiteSpace=wrap;html=1;strokeColor=#464F55;fontColor=#FFFFFF;fillColor=#2C6879;rounded=1;labelBackgroundColor=none;" parent="1" vertex="1">
          <mxGeometry x="-1796" y="-1.25" width="220" height="100" as="geometry">
            <mxRectangle x="299" y="276" width="120" height="40" as="alternateBounds" />
          </mxGeometry>
        </mxCell>
        <mxCell id="YMNnF1_kSBJPY39AivQV-21" value="&amp;nbsp;" style="text;strokeColor=none;fillColor=none;align=left;verticalAlign=top;spacingLeft=4;spacingRight=4;overflow=hidden;rotatable=0;points=[[0,0.5],[1,0.5]];portConstraint=eastwest;whiteSpace=wrap;html=1;fontColor=#464F55;rounded=1;labelBackgroundColor=none;" parent="YMNnF1_kSBJPY39AivQV-20" vertex="1">
          <mxGeometry y="40" width="220" height="20" as="geometry" />
        </mxCell>
        <mxCell id="YMNnF1_kSBJPY39AivQV-22" value="" style="line;strokeWidth=1;fillColor=none;align=left;verticalAlign=middle;spacingTop=-1;spacingLeft=3;spacingRight=3;rotatable=0;labelPosition=right;points=[];portConstraint=eastwest;strokeColor=#464F55;fontColor=#1A1A1A;rounded=1;labelBackgroundColor=none;" parent="YMNnF1_kSBJPY39AivQV-20" vertex="1">
          <mxGeometry y="60" width="220" height="8" as="geometry" />
        </mxCell>
        <mxCell id="YMNnF1_kSBJPY39AivQV-23" value="+ create_file()" style="text;strokeColor=none;fillColor=none;align=left;verticalAlign=top;spacingLeft=4;spacingRight=4;overflow=hidden;rotatable=0;points=[[0,0.5],[1,0.5]];portConstraint=eastwest;whiteSpace=wrap;html=1;fontColor=#464F55;rounded=1;labelBackgroundColor=none;" parent="YMNnF1_kSBJPY39AivQV-20" vertex="1">
          <mxGeometry y="68" width="220" height="32" as="geometry" />
        </mxCell>
        <mxCell id="YMNnF1_kSBJPY39AivQV-24" style="edgeStyle=orthogonalEdgeStyle;rounded=0;orthogonalLoop=1;jettySize=auto;html=1;exitX=0;exitY=0.5;exitDx=0;exitDy=0;entryX=0;entryY=0.5;entryDx=0;entryDy=0;endArrow=block;endFill=0;dashed=1;endSize=10;startSize=10;" parent="1" source="yN8mX1wbEfo4K8Nz7WSZ-34" target="YMNnF1_kSBJPY39AivQV-21" edge="1">
          <mxGeometry relative="1" as="geometry" />
        </mxCell>
        <mxCell id="YMNnF1_kSBJPY39AivQV-13" style="edgeStyle=orthogonalEdgeStyle;rounded=0;orthogonalLoop=1;jettySize=auto;html=1;exitX=1;exitY=0.5;exitDx=0;exitDy=0;endArrow=diamond;endFill=0;endSize=10;startSize=10;startArrow=open;startFill=0;entryX=0.001;entryY=0.577;entryDx=0;entryDy=0;entryPerimeter=0;" parent="1" source="yN8mX1wbEfo4K8Nz7WSZ-16" target="YMNnF1_kSBJPY39AivQV-2" edge="1">
          <mxGeometry relative="1" as="geometry">
            <mxPoint x="-1010.4285714285711" y="428.42857142857156" as="targetPoint" />
            <Array as="points">
              <mxPoint x="-993" y="429" />
              <mxPoint x="-993" y="310" />
            </Array>
          </mxGeometry>
        </mxCell>
        <mxCell id="l79x1VMeLkTDuMIe-8M3-4" value="&lt;br&gt;StreamEncoder" style="swimlane;fontStyle=1;align=center;verticalAlign=top;childLayout=stackLayout;horizontal=1;startSize=40;horizontalStack=0;resizeParent=1;resizeParentMax=0;resizeLast=0;collapsible=1;marginBottom=0;whiteSpace=wrap;html=1;strokeColor=#464F55;fontColor=#FFFFFF;fillColor=#2C6879;rounded=1;labelBackgroundColor=none;" parent="1" vertex="1">
          <mxGeometry x="-1385" y="678" width="220" height="100" as="geometry">
            <mxRectangle x="299" y="276" width="120" height="40" as="alternateBounds" />
          </mxGeometry>
        </mxCell>
        <mxCell id="l79x1VMeLkTDuMIe-8M3-5" value="&amp;nbsp;" style="text;strokeColor=none;fillColor=none;align=left;verticalAlign=top;spacingLeft=4;spacingRight=4;overflow=hidden;rotatable=0;points=[[0,0.5],[1,0.5]];portConstraint=eastwest;whiteSpace=wrap;html=1;fontColor=#464F55;rounded=1;labelBackgroundColor=none;" parent="l79x1VMeLkTDuMIe-8M3-4" vertex="1">
          <mxGeometry y="40" width="220" height="20" as="geometry" />
        </mxCell>
        <mxCell id="l79x1VMeLkTDuMIe-8M3-6" value="" style="line;strokeWidth=1;fillColor=none;align=left;verticalAlign=middle;spacingTop=-1;spacingLeft=3;spacingRight=3;rotatable=0;labelPosition=right;points=[];portConstraint=eastwest;strokeColor=#464F55;fontColor=#1A1A1A;rounded=1;labelBackgroundColor=none;" parent="l79x1VMeLkTDuMIe-8M3-4" vertex="1">
          <mxGeometry y="60" width="220" height="8" as="geometry" />
        </mxCell>
        <mxCell id="l79x1VMeLkTDuMIe-8M3-7" value="&amp;nbsp;" style="text;strokeColor=none;fillColor=none;align=left;verticalAlign=top;spacingLeft=4;spacingRight=4;overflow=hidden;rotatable=0;points=[[0,0.5],[1,0.5]];portConstraint=eastwest;whiteSpace=wrap;html=1;fontColor=#464F55;rounded=1;labelBackgroundColor=none;" parent="l79x1VMeLkTDuMIe-8M3-4" vertex="1">
          <mxGeometry y="68" width="220" height="32" as="geometry" />
        </mxCell>
        <mxCell id="l79x1VMeLkTDuMIe-8M3-12" style="edgeStyle=orthogonalEdgeStyle;rounded=0;orthogonalLoop=1;jettySize=auto;html=1;entryX=0.496;entryY=1;entryDx=0;entryDy=0;entryPerimeter=0;endArrow=diamond;endFill=0;startArrow=open;startFill=0;endSize=10;startSize=10;" parent="1" source="l79x1VMeLkTDuMIe-8M3-8" target="yN8mX1wbEfo4K8Nz7WSZ-18" edge="1">
          <mxGeometry relative="1" as="geometry" />
        </mxCell>
        <mxCell id="l79x1VMeLkTDuMIe-8M3-8" value="&lt;br&gt;BinaryTree" style="swimlane;fontStyle=1;align=center;verticalAlign=top;childLayout=stackLayout;horizontal=1;startSize=40;horizontalStack=0;resizeParent=1;resizeParentMax=0;resizeLast=0;collapsible=1;marginBottom=0;whiteSpace=wrap;html=1;strokeColor=#464F55;fontColor=#FFFFFF;fillColor=#2C6879;rounded=1;labelBackgroundColor=none;" parent="1" vertex="1">
          <mxGeometry x="-1385" y="529" width="220" height="125" as="geometry">
            <mxRectangle x="299" y="276" width="120" height="40" as="alternateBounds" />
          </mxGeometry>
        </mxCell>
        <mxCell id="l79x1VMeLkTDuMIe-8M3-9" value="&amp;nbsp;" style="text;strokeColor=none;fillColor=none;align=left;verticalAlign=top;spacingLeft=4;spacingRight=4;overflow=hidden;rotatable=0;points=[[0,0.5],[1,0.5]];portConstraint=eastwest;whiteSpace=wrap;html=1;fontColor=#464F55;rounded=1;labelBackgroundColor=none;" parent="l79x1VMeLkTDuMIe-8M3-8" vertex="1">
          <mxGeometry y="40" width="220" height="20" as="geometry" />
        </mxCell>
        <mxCell id="l79x1VMeLkTDuMIe-8M3-10" value="" style="line;strokeWidth=1;fillColor=none;align=left;verticalAlign=middle;spacingTop=-1;spacingLeft=3;spacingRight=3;rotatable=0;labelPosition=right;points=[];portConstraint=eastwest;strokeColor=#464F55;fontColor=#1A1A1A;rounded=1;labelBackgroundColor=none;" parent="l79x1VMeLkTDuMIe-8M3-8" vertex="1">
          <mxGeometry y="60" width="220" height="8" as="geometry" />
        </mxCell>
        <mxCell id="l79x1VMeLkTDuMIe-8M3-11" value="+ create&lt;br&gt;+ export&lt;br style=&quot;border-color: var(--border-color);&quot;&gt;+ import" style="text;strokeColor=none;fillColor=none;align=left;verticalAlign=top;spacingLeft=4;spacingRight=4;overflow=hidden;rotatable=0;points=[[0,0.5],[1,0.5]];portConstraint=eastwest;whiteSpace=wrap;html=1;fontColor=#464F55;rounded=1;labelBackgroundColor=none;" parent="l79x1VMeLkTDuMIe-8M3-8" vertex="1">
          <mxGeometry y="68" width="220" height="57" as="geometry" />
        </mxCell>
        <mxCell id="l79x1VMeLkTDuMIe-8M3-15" style="edgeStyle=orthogonalEdgeStyle;rounded=0;orthogonalLoop=1;jettySize=auto;html=1;endArrow=diamond;endFill=0;endSize=10;startSize=10;startArrow=open;startFill=0;exitX=0.992;exitY=0.207;exitDx=0;exitDy=0;exitPerimeter=0;" parent="1" source="l79x1VMeLkTDuMIe-8M3-7" edge="1">
          <mxGeometry relative="1" as="geometry">
            <Array as="points">
              <mxPoint x="-947" y="753" />
              <mxPoint x="-947" y="341" />
            </Array>
            <mxPoint x="-724" y="341" as="targetPoint" />
          </mxGeometry>
        </mxCell>
        <mxCell id="l79x1VMeLkTDuMIe-8M3-16" style="edgeStyle=orthogonalEdgeStyle;rounded=0;orthogonalLoop=1;jettySize=auto;html=1;entryX=1;entryY=0.5;entryDx=0;entryDy=0;startArrow=open;startFill=0;endArrow=diamond;endFill=0;endSize=10;startSize=10;" parent="1" source="yN8mX1wbEfo4K8Nz7WSZ-14" target="l79x1VMeLkTDuMIe-8M3-4" edge="1">
          <mxGeometry relative="1" as="geometry">
            <Array as="points">
              <mxPoint x="-1108" y="342" />
              <mxPoint x="-1108" y="728" />
            </Array>
          </mxGeometry>
        </mxCell>
      </root>
    </mxGraphModel>
  </diagram>
</mxfile>
